<svg width="27" height="28" viewBox="0 0 27 28" fill="none" xmlns="http://www.w3.org/2000/svg">
<path d="M-0.000183104 14.0369C0.0132706 17.1934 1.10048 20.253 3.08553 22.7208C5.07058 25.1886 7.83735 26.9202 10.9382 27.6354C14.039 28.3505 17.2925 28.0075 20.1723 26.6616C23.052 25.3158 25.3896 23.046 26.8067 20.2195C26.9661 19.9519 27.0214 19.6358 26.9622 19.3306C26.903 19.0254 26.7334 18.7522 26.4853 18.5623C26.3347 18.4488 26.1607 18.3697 25.9758 18.3305C25.7908 18.2914 25.5994 18.2932 25.4152 18.3358C25.2311 18.3784 25.0586 18.4608 24.9102 18.5771C24.7618 18.6933 24.6411 18.8406 24.5568 19.0084C23.6259 20.9632 22.1512 22.6136 20.3062 23.7654C18.4612 24.9172 16.3228 25.5224 14.1426 25.5097C12.2119 25.5115 10.3116 25.0343 8.61455 24.1215C6.91754 23.2088 5.47783 21.8896 4.42657 20.2841C3.37531 18.6785 2.74593 16.8377 2.59574 14.9293C2.44556 13.0209 2.77936 11.1056 3.56673 9.35785C4.3541 7.61009 5.57001 6.08543 7.1037 4.92277C8.63739 3.76011 10.4401 2.9964 12.3476 2.70122C14.2552 2.40603 16.2069 2.58876 18.0249 3.23275C19.843 3.87674 21.4697 4.96152 22.7568 6.38827H19.3497C19.032 6.38251 18.7225 6.48801 18.4756 6.68621C18.2286 6.8844 18.0601 7.16259 17.9997 7.47182C17.9717 7.65452 17.9841 7.84107 18.0361 8.01853C18.0881 8.196 18.1783 8.36014 18.3006 8.49959C18.4229 8.63904 18.5743 8.75045 18.7444 8.82612C18.9144 8.90179 19.099 8.93989 19.2854 8.9378H25.7139C26.0549 8.9378 26.3819 8.80349 26.623 8.56443C26.8641 8.32537 26.9996 8.00112 26.9996 7.66304V1.35295C27.0054 1.03801 26.899 0.731133 26.6991 0.486307C26.4992 0.241481 26.2186 0.0743963 25.9067 0.0144504C25.7225 -0.0132805 25.5343 -0.000957884 25.3553 0.0505646C25.1763 0.102087 25.0108 0.191578 24.8702 0.312835C24.7295 0.434093 24.6171 0.584219 24.5408 0.752812C24.4645 0.921405 24.4261 1.10443 24.4282 1.28921V4.41239C22.4844 2.37023 19.967 0.953722 17.202 0.34628C14.437 -0.261161 11.5518 -0.0315511 8.9199 1.00538C6.28802 2.0423 4.03074 3.83879 2.44037 6.16219C0.84999 8.48559 -0.00022573 11.2289 -0.000183104 14.0369Z" fill="white"/>
<path d="M18.8333 19.6667C18.6253 19.671 18.4213 19.6098 18.25 19.4917L11.8333 15.6417V9.16668C11.8333 8.85726 11.9562 8.56052 12.175 8.34172C12.3938 8.12293 12.6906 8.00002 13 8.00002C13.3094 8.00002 13.6061 8.12293 13.8249 8.34172C14.0437 8.56052 14.1666 8.85726 14.1666 9.16668V14.3583L19.4166 17.5083C19.5513 17.5806 19.6695 17.68 19.7638 17.8002C19.8582 17.9203 19.9267 18.0587 19.9651 18.2066C20.0034 18.3545 20.0108 18.5087 19.9867 18.6596C19.9625 18.8105 19.9075 18.9548 19.825 19.0833C19.7289 19.262 19.5856 19.4109 19.4108 19.5138C19.2359 19.6166 19.0362 19.6695 18.8333 19.6667Z" fill="white"/>
</svg>
