<svg xmlns="http://www.w3.org/2000/svg" width="24" height="24" fill="none"><g clip-path="url(#a)"><path fill="#00247D" d="M0 6.04v2.627h3.752L0 6.039Zm3.11 14.627h5.557v-3.892l-5.558 3.892Zm12.223-3.891v3.89h5.557l-5.557-3.89ZM0 15.333v2.628l3.753-2.628H0Zm20.891-12h-5.558v3.892l5.558-3.892ZM24 17.961v-2.628h-3.754L24 17.961Zm0-9.294V6.039l-3.753 2.628H24ZM8.667 3.333H3.109l5.558 3.892V3.333Z"/><path fill="#CF1B2B" d="m16.76 15.333 6.475 4.534c.316-.325.543-.727.66-1.166l-4.81-3.368H16.76Zm-8.093 0H7.239L.765 19.867a2.66 2.66 0 0 0 1.292.723l6.61-4.628v-.629Zm6.666-6.666h1.428l6.474-4.534a2.659 2.659 0 0 0-1.292-.723l-6.61 4.628v.629Zm-8.094 0L.765 4.133A2.663 2.663 0 0 0 .105 5.3l4.81 3.368h2.324Z"/><path fill="#EEE" d="M24 14H14v6.667h1.333v-3.891l5.557 3.89h.443a2.658 2.658 0 0 0 1.902-.799l-6.475-4.534h2.325l4.81 3.368c.062-.224.105-.457.105-.701v-.039l-3.754-2.628H24V14ZM0 14v1.333h3.753L0 17.961V18c0 .727.293 1.385.765 1.867l6.474-4.534h1.428v.629l-6.61 4.627c.196.047.399.078.61.078h.442l5.558-3.892v3.892H10V14H0Zm24-8c0-.699-.275-1.37-.765-1.867L16.76 8.667h-1.428v-.629l6.61-4.628a2.668 2.668 0 0 0-.61-.077h-.442l-5.558 3.892V3.333H14V10h10V8.667h-3.753L24 6.039V6ZM8.667 3.333v3.892L3.109 3.333h-.442a2.657 2.657 0 0 0-1.902.8L7.24 8.667H4.915L.105 5.299A2.645 2.645 0 0 0 0 6v.04l3.752 2.627H0V10h10V3.333H8.667Z"/><path fill="#CF1B2B" d="M14 10V3.333h-4V10H0v4h10v6.667h4V14h10v-4H14Z"/></g><defs><clipPath id="a"><path fill="#fff" d="M0 0h24v24H0z"/></clipPath></defs></svg>